<?xml version="1.0" standalone="no"?>
<!DOCTYPE svg PUBLIC "-//W3C//DTD SVG 20010904//EN"
 "http://www.w3.org/TR/2001/REC-SVG-20010904/DTD/svg10.dtd">
<svg version="1.0" xmlns="http://www.w3.org/2000/svg"
 width="55.000000pt" height="55.000000pt" viewBox="0 0 55.000000 55.000000"
 preserveAspectRatio="xMidYMid meet">

<g transform="translate(0.000000,55.000000) scale(0.100000,-0.100000)"
fill="#000000" stroke="none">
<path d="M22 526 c-21 -23 -22 -29 -22 -255 0 -218 1 -232 20 -251 19 -19 33
-20 259 -20 204 0 242 2 255 16 14 13 16 51 16 259 0 241 0 244 -22 259 -19
13 -60 16 -253 16 -229 0 -230 0 -253 -24z m307 -83 c3 -5 13 -12 22 -15 16
-6 49 -60 49 -80 0 -11 -16 -31 -53 -69 -25 -24 -27 -33 -21 -66 4 -21 13 -44
21 -52 12 -12 18 -10 42 13 48 46 69 29 30 -26 -29 -41 -80 -62 -113 -47 -27
13 -36 35 -36 90 0 26 -6 41 -22 51 -30 20 -18 48 21 48 31 0 41 14 41 58 0
39 -12 52 -52 58 -24 4 -49 0 -79 -14 -53 -25 -79 -12 -39 19 14 10 30 23 36
28 6 5 20 11 30 14 28 8 115 1 123 -10z m-99 -95 c0 -13 -5 -41 -11 -63 -5
-22 -14 -71 -18 -109 -9 -68 -20 -86 -53 -86 -25 0 -30 31 -17 106 16 90 54
174 80 174 13 0 19 -7 19 -22z"/>
</g>
</svg>
